<?xml version="1.0" standalone="no"?><!DOCTYPE svg PUBLIC "-//W3C//DTD SVG 1.1//EN" "http://www.w3.org/Graphics/SVG/1.1/DTD/svg11.dtd"><svg t="1544666387825" class="icon" style="" viewBox="0 0 1024 1024" version="1.1" xmlns="http://www.w3.org/2000/svg" p-id="5021" xmlns:xlink="http://www.w3.org/1999/xlink" width="200" height="200"><defs><style type="text/css"></style></defs><path d="M521.309091 37.236364h-18.618182C478.487273 37.236364 37.236364 539.927273 37.236364 539.927273c0 40.96 33.512727 74.472727 74.472727 74.472727h67.025454c-7.447273 11.170909-11.170909 24.203636-11.170909 37.236364v223.418181c0 40.96 33.512727 74.472727 74.472728 74.472728h186.181818V670.254545h186.181818v279.272728h167.563636c40.96 0 74.472727-33.512727 74.472728-74.472728V651.636364c0-13.032727-3.723636-26.065455-11.170909-37.236364H912.290909c40.96 0 74.472727-33.512727 74.472727-74.472727 0 0-439.389091-502.690909-465.454545-502.690909z" p-id="5022"></path></svg>