<?xml version="1.0" standalone="no"?><!DOCTYPE svg PUBLIC "-//W3C//DTD SVG 1.1//EN" "http://www.w3.org/Graphics/SVG/1.1/DTD/svg11.dtd"><svg t="1544666347102" class="icon" style="" viewBox="0 0 1024 1024" version="1.1" xmlns="http://www.w3.org/2000/svg" p-id="4837" xmlns:xlink="http://www.w3.org/1999/xlink" width="200" height="200"><defs><style type="text/css"></style></defs><path d="M530.618182 63.301818c57.716364 72.610909 260.654545 327.68 409.6 513.861818H837.818182v335.127273H651.636364V633.018182H390.981818v279.272727H204.8V577.163636H85.643636C247.621818 389.12 467.316364 134.050909 530.618182 63.301818M539.927273 18.618182h-18.618182C515.723636 18.618182 37.236364 577.163636 37.236364 577.163636c0 20.48 16.756364 37.236364 37.236363 37.236364h93.090909v297.890909c0 20.48 16.756364 37.236364 37.236364 37.236364h186.181818c20.48 0 37.236364-16.756364 37.236364-37.236364V670.254545h186.181818v242.036364c0 20.48 16.756364 37.236364 37.236364 37.236364h186.181818c20.48 0 37.236364-16.756364 37.236363-37.236364V614.4h74.472728c20.48 0 37.236364-16.756364 37.236363-37.236364 0 0-441.250909-558.545455-446.836363-558.545454z" p-id="4838" fill="#666666"></path></svg>