<?xml version="1.0" standalone="no"?><!DOCTYPE svg PUBLIC "-//W3C//DTD SVG 1.1//EN" "http://www.w3.org/Graphics/SVG/1.1/DTD/svg11.dtd"><svg t="1544666401521" class="icon" style="" viewBox="0 0 1096 1024" version="1.1" xmlns="http://www.w3.org/2000/svg" p-id="5135" xmlns:xlink="http://www.w3.org/1999/xlink" width="214.0625" height="200"><defs><style type="text/css"></style></defs><path d="M893.6769239 763.34821758H662.80893054c-33.51309524 0-70.74986903 111.71031879-104.26296428 111.71032007-33.51309524 0-63.30251453-111.71031879-94.9537718-111.71032007H242.03339488c-40.96044975 0-74.47354629-33.51309524-74.47354499-74.473545V204.79662238c0-40.96044975 33.51309524-74.47354629 74.47354499-74.47354628h651.64352902c40.96044975 0 74.47354629 33.51309524 74.47354627 74.47354628v484.0780502c0 40.96044975-33.51309524 74.47354629-74.47354627 74.473545zM400.28968121 390.98048745c-26.06574074 0-46.54596626 20.4802255-46.54596626 46.54596626s20.4802255 46.54596626 46.54596626 46.54596626 46.54596626-20.4802255 46.54596628-46.54596626c-1.86183928-26.06574074-22.3420635-46.54596626-46.54596628-46.54596626z m148.94709129 0c-26.06574074 0-46.54596626 20.4802255-46.54596627 46.54596626s20.4802255 46.54596626 46.54596627 46.54596626 46.54596626-20.4802255 46.54596626-46.54596626-20.4802255-46.54596626-46.54596626-46.54596626z m148.94709255 0c-26.06574074 0-46.54596626 20.4802255-46.54596625 46.54596626s20.4802255 46.54596626 46.54596625 46.54596626 46.54596626-20.4802255 46.54596629-46.54596626-20.4802255-46.54596626-46.54596629-46.54596626z" p-id="5136"></path></svg>