<?xml version="1.0" standalone="no"?><!DOCTYPE svg PUBLIC "-//W3C//DTD SVG 1.1//EN" "http://www.w3.org/Graphics/SVG/1.1/DTD/svg11.dtd"><svg t="1544666407448" class="icon" style="" viewBox="0 0 1364 1024" version="1.1" xmlns="http://www.w3.org/2000/svg" p-id="5249" xmlns:xlink="http://www.w3.org/1999/xlink" width="266.40625" height="200"><defs><style type="text/css"></style></defs><path d="M647.944828 838.62069c7.062069-8.827586 14.124138-21.186207 19.420689-28.248276 22.951724-35.310345 44.137931-68.855172 79.448276-68.855173h218.924138c19.42069 0 35.310345-15.889655 35.310345-35.310344V247.172414c0-19.42069-15.889655-35.310345-35.310345-35.310345h-617.931034c-19.42069 0-35.310345 15.889655-35.310345 35.310345v459.034483c0 19.42069 15.889655 35.310345 35.310345 35.310344h210.096551c35.310345 0 54.731034 35.310345 74.151724 70.62069 5.296552 7.062069 10.593103 19.42069 15.889656 26.482759m0 44.137931c-31.77931 0-60.027586-105.931034-90.04138-105.931035H347.806897c-38.841379 0-70.62069-31.77931-70.62069-70.620689V247.172414c0-38.841379 31.77931-70.62069 70.62069-70.62069h617.931034c38.841379 0 70.62069 31.77931 70.62069 70.62069v459.034483c0 38.841379-31.77931 70.62069-70.62069 70.620689H746.813793c-31.77931 0-67.089655 105.931034-98.868965 105.931035z m317.793103-105.931035z" p-id="5250"></path><path d="M515.531034 512c-24.717241 0-44.137931-19.42069-44.137931-44.137931s19.42069-44.137931 44.137931-44.137931 44.137931 19.42069 44.137932 44.137931-21.186207 44.137931-44.137932 44.137931z m141.24138 0c-24.717241 0-44.137931-19.42069-44.137931-44.137931s19.42069-44.137931 44.137931-44.137931 44.137931 19.42069 44.137931 44.137931-21.186207 44.137931-44.137931 44.137931z m141.241379 0c-24.717241 0-44.137931-19.42069-44.137931-44.137931s19.42069-44.137931 44.137931-44.137931 44.137931 19.42069 44.137931 44.137931-21.186207 44.137931-44.137931 44.137931z" p-id="5251"></path></svg>