<?xml version="1.0" standalone="no"?><!DOCTYPE svg PUBLIC "-//W3C//DTD SVG 1.1//EN" "http://www.w3.org/Graphics/SVG/1.1/DTD/svg11.dtd"><svg t="1544666423128" class="icon" style="" viewBox="0 0 1024 1024" version="1.1" xmlns="http://www.w3.org/2000/svg" p-id="5478" xmlns:xlink="http://www.w3.org/1999/xlink" width="200" height="200"><defs><style type="text/css"></style></defs><path d="M646.050909 724.247273l-20.48-98.676364c0-55.854545 48.407273-80.058182 107.985455-121.018182 61.44-40.96 55.854545-94.952727 40.96-107.985454-20.48-16.756364-44.683636-63.301818-44.683637-137.774546S709.352727 106.123636 595.781818 96.814545c-81.92-7.447273-81.92-53.992727-186.181818-35.374545-111.709091 20.48-134.050909 104.261818-134.050909 176.872727 0 74.472727-27.927273 139.636364-44.683636 158.254546-13.032727 13.032727-18.618182 67.025455 40.96 107.985454 61.44 40.96 109.847273 65.163636 109.847272 121.018182l-20.48 98.676364s-214.109091 29.789091-208.523636 130.327272c3.723636 72.610909 46.545455 94.952727 46.545454 94.952728h610.676364s42.821818-22.341818 46.545455-94.952728c3.723636-102.4-210.385455-130.327273-210.385455-130.327272z" p-id="5479"></path></svg>