<?xml version="1.0" standalone="no"?><!DOCTYPE svg PUBLIC "-//W3C//DTD SVG 1.1//EN" "http://www.w3.org/Graphics/SVG/1.1/DTD/svg11.dtd"><svg t="1544666415743" class="icon" style="" viewBox="0 0 1024 1024" version="1.1" xmlns="http://www.w3.org/2000/svg" p-id="5364" xmlns:xlink="http://www.w3.org/1999/xlink" width="200" height="200"><defs><style type="text/css"></style></defs><path d="M648.940375 722.207836l-1.744464 17.444634S837.342419 771.052811 830.364566 837.342419v3.488927c-3.488927 61.056218-33.144804 73.267462-33.144805 75.011925l8.722317 15.70017v-17.444634l-573.928449 8.722317v17.444634l8.722316-15.70017s-31.400341-12.211244-34.889267-75.011925v-3.488927c-10.46678-66.289608 179.679727-104.667802 179.679727-104.667802l13.955707-13.955707 17.444634-92.456559v-3.488927c-1.744463-64.545145-57.567291-88.967632-111.645656-125.601363-33.144804-20.93356-40.122658-43.611584-40.122657-59.311754 0-8.722317 3.488927-13.955707 3.488926-13.955707 22.678024-24.422487 45.356048-87.223169 45.356048-160.490631 0-68.034072 15.70017-130.834753 109.901193-151.768313 15.70017-3.488927 27.911414-3.488927 38.378194-5.23339 48.844974-1.744463 59.311755 27.911414 132.579216 34.889267 95.945486 8.722317 108.156729 64.545145 111.645656 132.579216 1.744463 73.267462 24.422487 120.367973 50.589438 141.301534 0 0 3.488927 3.488927 3.488927 12.211243 0 15.70017-6.977853 38.378194-38.378195 61.056218-57.567291 43.611584-111.645656 69.778535-111.645655 134.32368v3.488927l20.93356 90.712095 17.444634-3.488927 1.744463-17.444633c-8.722317-1.744463-17.444634 5.23339-19.189097 15.70017-1.744463 8.722317 5.23339 17.444634 15.70017 19.189097l1.744464-17.444634-1.744464 17.444634c5.23339 0 10.46678-1.744463 15.700171-5.23339 3.488927-3.488927 5.23339-10.46678 3.488927-15.70017L645.451448 628.006814l-17.444634 3.488927h17.444634c-1.744463-38.378194 33.144804-59.311755 92.456559-99.434412 40.122658-27.911414 54.078365-62.800681 54.078364-90.712096 0-15.70017-3.488927-29.655877-15.70017-38.378194-13.955707-10.46678-36.633731-48.844974-36.633731-115.134582 1.744463-71.522998-26.166951-160.49063-143.045996-167.468484-57.567291-3.488927-68.034072-34.889267-136.068144-34.889268-12.211244 0-27.911414 1.744463-43.611584 5.23339-115.134583 20.93356-139.55707 113.390119-137.812606 184.913118 1.744463 64.545145-24.422487 127.345826-34.889268 136.068143-8.722317 10.46678-12.211244 22.678024-12.211243 38.378194 0 27.911414 15.70017 62.800681 55.822828 88.967632 59.311755 38.378194 95.945486 57.567291 95.945485 97.689949h17.444634l-17.444634-3.488927-17.444634 92.456559 17.444634 3.488927-3.488927-17.444634c0 3.488927-202.357751 20.93356-209.335604 139.55707v5.23339c5.23339 75.011925 50.589438 101.178876 54.078364 102.923339l8.722317 1.744464 572.183986-8.722317 8.722317-1.744464c3.488927-1.744463 48.844974-29.655877 50.589438-104.667802v-5.23339c-10.46678-116.879046-212.824532-129.09029-212.824531-132.579217-8.722317-1.744463-17.444634 5.23339-19.189098 15.700171-1.744463 8.722317 5.23339 17.444634 15.700171 19.189097v-20.933561z" p-id="5365"></path></svg>